<svg t="1575705525654" class="icon" viewBox="0 0 1025 1024" version="1.1" xmlns="http://www.w3.org/2000/svg" p-id="7672" width="64" height="64"><path d="M701.224 315.597h53.383v31.14h-53.383v-31.14zM305.295 667.04l53.383-13.347v-67.47h-53.383zM567.023 410.501h52.643v31.882h-52.643v-31.882zM567.023 315.597h52.643v31.14h-52.643v-31.14zM701.224 410.501h53.383v31.882h-53.383v-31.882z" p-id="7673"></path><path d="M512.007 0C229.683 0 0 229.683 0 511.993 0 794.317 229.683 1024 512.007 1024c282.325 0 512.013-229.683 512.013-512.007C1024.015 229.683 794.332 0 512.007 0zM488.43 244.419h131.236v-61.54h81.558v61.54H833.2V513.56H488.43V244.419z m-45.227 467.848v143.84h-84.525v-118.63l-151.995 44.486-38.555-81.558 54.125-13.346V283.715h-37.071v-78.593h293.61v78.593h-35.589v349.217l22.243-5.93 26.692 70.436-48.935 14.83z m419.655-97.129h-237.26l-7.416 29.658h197.223l-13.346 108.99c-5.93 66.232-49.434 99.354-130.493 99.354-20.76 0-42.019-1.482-63.763-4.449 0-26.205-7.415-53.141-22.244-80.816 15.813 2.965 29.901 4.946 42.262 5.93 11.863 1.483 24.212 2.224 37.071 2.224 28.175 0.499 43.49-10.624 45.97-33.364l4.448-26.691H508.45l24.467-100.837h-71.92v-72.66h401.86v72.661z" p-id="7674"></path><path d="M305.295 283.715h53.383v74.144h-53.383v-74.144zM305.295 434.969h53.383v74.144h-53.383V434.97z" p-id="7675"></path></svg>
