<svg t="1575704550369" class="icon" viewBox="0 0 1024 1024" version="1.1" xmlns="http://www.w3.org/2000/svg" p-id="1853" width="64" height="64"><path d="M479.82 693.74l192-51.53V329.9l-192 52z m64-181.42c13.81 0 25 14.33 25 32s-11.19 32-25 32-25-14.33-25-32 11.18-32 25-32z" p-id="1854"></path><path d="M511.82 63.82c-293.27 0-448 154.73-448 448s154.73 448 448 448 448-154.73 448-448-154.72-448-448-448z m224 224v384a32 32 0 0 1-32 32H689L459.71 765.5a31.93 31.93 0 0 1-43.88-29.71V357.22a32 32 0 0 1 20.12-29.71l28.37-7.69h-112.5v352a32 32 0 0 1-32 32 32 32 0 0 1-32-32v-384a32 32 0 0 1 32-32h385.6a31.92 31.92 0 0 1 22.79 11.29l0.06 0.07c0.24 0.29 0.48 0.58 0.71 0.88l0.34 0.43 0.41 0.56c0.19 0.26 0.38 0.52 0.56 0.79l0.16 0.24a31.49 31.49 0 0 1 5 12.83v0.29c0.06 0.43 0.12 0.86 0.16 1.29s0.08 0.95 0.11 1.43V287.79z" p-id="1855"></path></svg>
