<svg t="1575704659116" class="icon" viewBox="0 0 1024 1024" version="1.1" xmlns="http://www.w3.org/2000/svg" p-id="2653" width="64" height="64"><path d="M512 512m-512 0a512 512 0 1 0 1024 0 512 512 0 1 0-1024 0Z" p-id="2654"></path><path d="M711.111111 789.333333H312.888889A49.777778 49.777778 0 0 1 263.111111 739.555556V284.444444A49.777778 49.777778 0 0 1 312.888889 234.666667h398.222222A49.777778 49.777778 0 0 1 760.888889 284.444444v455.111112A49.777778 49.777778 0 0 1 711.111111 789.333333z m-398.222222-512a7.111111 7.111111 0 0 0-7.111111 7.111111v455.111112a7.111111 7.111111 0 0 0 7.111111 7.111111h398.222222a7.111111 7.111111 0 0 0 7.111111-7.111111V284.444444a7.111111 7.111111 0 0 0-7.111111-7.111111z" fill="#FFFFFF" p-id="2655"></path><path d="M398.222222 398.222222l227.555556 0 0 28.444445-227.555556 0 0-28.444445Z" fill="#FFFFFF" p-id="2656"></path><path d="M398.222222 483.555556l227.555556 0 0 28.444444-227.555556 0 0-28.444444Z" fill="#FFFFFF" p-id="2657"></path></svg>
