<svg t="1575705565339" class="icon" viewBox="0 0 1024 1024" version="1.1" xmlns="http://www.w3.org/2000/svg" p-id="8544" width="64" height="64"><path d="M512 0C229.235451 0 0 229.235451 0 512c0 282.774588 229.235451 512 512 512s512-229.225412 512-512c0-282.764549-229.235451-512-512-512zM396.057098 828.235294h-67.945412c-19.375686 0-35.137255-15.761569-35.137255-35.137255V665.278745a21.082353 21.082353 0 1 1 42.164706 0V786.070588h60.917961a21.082353 21.082353 0 1 1 0 42.164706z m141.131294 0h-61.500235a21.082353 21.082353 0 1 1 0-42.164706h61.500235a21.082353 21.082353 0 1 1 0 42.164706z m-65.114353-317.952h182.332236a5.019608 5.019608 0 0 1 5.019607 5.019608v18.070588a5.019608 5.019608 0 0 1-5.019607 5.019608H472.074039a5.019608 5.019608 0 0 1-5.019608-5.019608v-18.070588a5.019608 5.019608 0 0 1 5.019608-5.019608z m-5.019608-43.078274v-18.070589a5.019608 5.019608 0 0 1 5.019608-5.019607h153.057883a5.019608 5.019608 0 0 1 5.019607 5.019607v18.070589a5.019608 5.019608 0 0 1-5.019607 5.019607H472.074039a5.019608 5.019608 0 0 1-5.019608-5.019607zM731.025569 793.098039c0 19.375686-15.761569 35.137255-35.137255 35.137255H581.692235a21.082353 21.082353 0 1 1 0-42.164706h107.168628V237.929412H335.139137v339.496157a21.082353 21.082353 0 1 1-42.164706 0V230.901961c0-19.375686 15.761569-35.137255 35.137255-35.137255h367.776628c19.375686 0 35.137255 15.761569 35.137255 35.137255v562.196078z" p-id="8545"></path></svg>
